# xmcd
#
# Track frame offsets:
#	150
#	35930
#	73243
#	145134
#	217439
#	235514
#	276947
#	317505
#	344600
#
# Disc length: 4774 seconds
#
# Revision: 1
# Processed by: cddbd v1.5.2PL0 Copyright (c) Steve Scherf et al.
# Submitted via: audiograbber 1.83.01
#
DISCID=9812a409
DTITLE=Grateful Dead - 93-08-27 Shoreline Amphitheatre, Mountain View CA
DYEAR=1900
DGENRE=
TTITLE0=Uncle John's Band
TTITLE1=Corinna
TTITLE2=Drums
TTITLE3=Space
TTITLE4=I Need A Miracle
TTITLE5=Days Between
TTITLE6=Throwing Stones
TTITLE7=Turn On Your Lovelight
TTITLE8=I Fought The Law
EXTD=
EXTT0=
EXTT1=
EXTT2=
EXTT3=
EXTT4=
EXTT5=
EXTT6=
EXTT7=
EXTT8=
PLAYORDER=
